<svg width="257" height="53" viewBox="0 0 257 53" fill="none" xmlns="http://www.w3.org/2000/svg">
<path d="M73.8478 0L85.2806 3.64551L73.4327 40.8023L61.9999 37.1568L73.8478 0Z" fill="#1A4B13"/>
<path d="M109.424 28.1024L100.904 36.5525L76.63 12.0771L85.1503 3.62701L109.424 28.1024Z" fill="#1A4B13"/>
<circle cx="110" cy="28" r="25" fill="#AF5656"/>
<path d="M118 28.5C118 32.6421 114.642 36 110.5 36C106.358 36 103 32.6421 103 28.5C103 24.3579 106.358 21 110.5 21C114.642 21 118 24.3579 118 28.5Z" fill="#F0C256"/>
<path d="M11.8479 0L23.2808 3.64551L11.4329 40.8023L8.98332e-06 37.1568L11.8479 0Z" fill="#1A4B13"/>
<path d="M47.4242 28.1024L38.9039 36.5525L14.6301 12.0771L23.1504 3.62701L47.4242 28.1024Z" fill="#1A4B13"/>
<path d="M56 28.5C56 32.6421 52.6421 36 48.5 36C44.3579 36 41 32.6421 41 28.5C41 24.3579 44.3579 21 48.5 21C52.6421 21 56 24.3579 56 28.5Z" fill="#F0C256"/>
<circle cx="47.9999" cy="28" r="25" fill="#AB553B"/>
<path d="M56 28.5C56 32.6421 52.6421 36 48.5 36C44.3579 36 41 32.6421 41 28.5C41 24.3579 44.3579 21 48.5 21C52.6421 21 56 24.3579 56 28.5Z" fill="#F0C256"/>
<path d="M137.848 0L149.281 3.64551L137.433 40.8023L126 37.1568L137.848 0Z" fill="#1A4B13"/>
<path d="M173.424 28.1024L164.904 36.5525L140.63 12.0771L149.15 3.62701L173.424 28.1024Z" fill="#1A4B13"/>
<circle cx="174" cy="28" r="25" fill="#DB6B49"/>
<path d="M182 28.5C182 32.6421 178.642 36 174.5 36C170.358 36 167 32.6421 167 28.5C167 24.3579 170.358 21 174.5 21C178.642 21 182 24.3579 182 28.5Z" fill="#F0C256"/>
<path d="M195.848 0L207.281 3.64551L195.433 40.8023L184 37.1568L195.848 0Z" fill="#1A4B13"/>
<path d="M231.424 28.1024L222.904 36.5525L198.63 12.0771L207.15 3.62701L231.424 28.1024Z" fill="#1A4B13"/>
<circle cx="232" cy="28" r="25" fill="#CABA71"/>
<path d="M240 28.5C240 32.6421 236.642 36 232.5 36C228.358 36 225 32.6421 225 28.5C225 24.3579 228.358 21 232.5 21C236.642 21 240 24.3579 240 28.5Z" fill="#F0C256"/>
<path d="M137.848 0L149.281 3.64551L137.433 40.8023L126 37.1568L137.848 0Z" fill="#1A4B13"/>
<path d="M173.424 28.1024L164.904 36.5525L140.63 12.0771L149.15 3.62701L173.424 28.1024Z" fill="#1A4B13"/>
<circle cx="174" cy="28" r="25" fill="#5474A0"/>
<path d="M182 28.5C182 32.6421 178.642 36 174.5 36C170.358 36 167 32.6421 167 28.5C167 24.3579 170.358 21 174.5 21C178.642 21 182 24.3579 182 28.5Z" fill="#F0C256"/>
</svg>
