<svg width="254" height="58" viewBox="0 0 254 58" fill="none" xmlns="http://www.w3.org/2000/svg">
<path d="M62 19H74V58H62V19Z" fill="#1A4B13"/>
<path d="M101.93 18L102.302 29.9942L68.372 31.0464L68 19.0522L101.93 18Z" fill="#1A4B13"/>
<circle cx="102" cy="25" r="25" fill="#D36161"/>
<path d="M110 26.5C110 30.6421 106.642 34 102.5 34C98.3579 34 95 30.6421 95 26.5C95 22.3579 98.3579 19 102.5 19C106.642 19 110 22.3579 110 26.5Z" fill="#F0C256"/>
<path d="M126 19H138V58H126V19Z" fill="#1A4B13"/>
<path d="M165.93 18L166.302 29.9942L132.372 31.0464L132 19.0522L165.93 18Z" fill="#1A4B13"/>
<circle cx="166" cy="25" r="25" fill="#5C8DD1"/>
<path d="M174 26.5C174 30.6421 170.642 34 166.5 34C162.358 34 159 30.6421 159 26.5C159 22.3579 162.358 19 166.5 19C170.642 19 174 22.3579 174 26.5Z" fill="#F0C256"/>
<path d="M0 19H12V58H0V19Z" fill="#1A4B13"/>
<path d="M33.9296 18L34.3016 29.9942L0.371974 31.0464L2.65825e-05 19.0522L33.9296 18Z" fill="#1A4B13"/>
<circle cx="43" cy="26" r="25" fill="#DB6B49"/>
<path d="M51 26.5C51 30.6421 47.6421 34 43.5 34C39.3579 34 36 30.6421 36 26.5C36 22.3579 39.3579 19 43.5 19C47.6421 19 51 22.3579 51 26.5Z" fill="#F0C256"/>
<path d="M189 19H201V58H189V19Z" fill="#1A4B13"/>
<path d="M228.93 18L229.302 29.9942L195.372 31.0464L195 19.0522L228.93 18Z" fill="#1A4B13"/>
<circle cx="229" cy="25" r="25" fill="#F9E68F"/>
<path d="M237 26.5C237 30.6421 233.642 34 229.5 34C225.358 34 222 30.6421 222 26.5C222 22.3579 225.358 19 229.5 19C233.642 19 237 22.3579 237 26.5Z" fill="#F0C256"/>
</svg>
