<svg width="131" height="194" viewBox="0 0 131 194" fill="none" xmlns="http://www.w3.org/2000/svg">
<path d="M65.5 32L92 81L39.5 79.5L65.5 32Z" fill="#429DCE"/>
<path d="M92.9811 83.2959C92.9811 93.5131 79.0121 101.897 65.4811 101.897C51.9502 101.897 37.9811 93.614 37.9811 83.3967C37.9811 73.1795 50.4502 76.8967 63.9811 76.8967C77.5121 76.8967 92.9811 73.0786 92.9811 83.2959Z" fill="#429DCE"/>
<path d="M81.8571 151L97 181L67 180.082L81.8571 151Z" fill="#A9E1EA"/>
<path d="M98 182.419C98 188.78 89.8726 194 82 194C74.1274 194 66 188.843 66 182.482C66 176.12 73.2547 178.435 81.1273 178.435C88.9998 178.435 98 176.058 98 182.419Z" fill="#A9E1EA"/>
<path d="M21.8571 0L37 30L7 29.0816L21.8571 0Z" fill="#75C9DE"/>
<path d="M38 31.419C38 37.7803 29.8726 43 22 43C14.1274 43 6 37.8431 6 31.4818C6 25.1205 13.2547 27.4349 21.1273 27.4349C28.9998 27.4349 38 25.0577 38 31.419Z" fill="#75C9DE"/>
<path d="M111.829 89L130 129L94 127.776L111.829 89Z" fill="#6BC2F1"/>
<path d="M131 130.8C131 139.149 121.349 146 112 146C102.651 146 93 139.232 93 130.882C93 122.533 101.615 125.571 110.964 125.571C120.312 125.571 131 122.451 131 130.8Z" fill="#6BC2F1"/>
<path d="M27.5189 112L54.0189 161L1.51886 159.5L27.5189 112Z" fill="#D9D9D9"/>
<path d="M27.7524 101.897L54 157.897L2 156.182L27.7524 101.897Z" fill="#39586C"/>
<path d="M55 160.906C55 172.436 41.031 181.897 27.5 181.897C13.969 181.897 0 172.55 0 161.02C0 149.49 12.469 153.685 26 153.685C39.531 153.685 55 149.376 55 160.906Z" fill="#39586C"/>
</svg>
